HIERARCHY
ROOT Hips
{
  OFFSET 56.2857 93.6841 12.2888
  CHANNELS 6 Xposition Yposition Zposition Zrotation Xrotation Yrotation
  JOINT spine
  {
    OFFSET 0 7.4756 0.429885
    CHANNELS 3 Zrotation Xrotation Yrotation
    JOINT spine1
    {
      OFFSET 0 9.92301 0
      CHANNELS 3 Zrotation Xrotation Yrotation
      JOINT spine2
      {
        OFFSET 0 9.50804 0
        CHANNELS 3 Zrotation Xrotation Yrotation
        JOINT Neck
        {
          OFFSET 0 24.4111 1.16384
          CHANNELS 3 Zrotation Xrotation Yrotation
          JOINT Head
          {
            OFFSET 0 7.37523 0
            CHANNELS 3 Zrotation Xrotation Yrotation
            End Site
            {
              OFFSET 0 17.8522 -5.88741
            }
          }
        }
        JOINT RightShoulder
        {
          OFFSET -4.00356 10.2679 -0.557468
          CHANNELS 3 Zrotation Xrotation Yrotation
          JOINT RightArm
          {
            OFFSET 0 13.4673 0
            CHANNELS 3 Zrotation Xrotation Yrotation
            JOINT RightArmRoll
            {
              OFFSET 0 6.79858 0
              CHANNELS 3 Zrotation Xrotation Yrotation
              JOINT RightForeArm
              {
                OFFSET 0 19.8018 0
                CHANNELS 3 Zrotation Xrotation Yrotation
                JOINT RightForeArmRoll
                {
                  OFFSET 0 7.62905 0
                  CHANNELS 3 Zrotation Xrotation Yrotation
                  JOINT RightHand
                  {
                    OFFSET 0 15.3098 0
                    CHANNELS 3 Zrotation Xrotation Yrotation
                    End Site
                    {
                      OFFSET 0 0 0
                    }
                  }
                }
              }
            }
          }
        }
        JOINT LeftShoulder
        {
          OFFSET 4.00356 10.2679 -0.557468
          CHANNELS 3 Zrotation Xrotation Yrotation
          JOINT LeftArm
          {
            OFFSET 0 13.4673 0
            CHANNELS 3 Zrotation Xrotation Yrotation
            JOINT LeftArmRoll
            {
              OFFSET 0 6.79858 0
              CHANNELS 3 Zrotation Xrotation Yrotation
              JOINT LeftForeArm
              {
                OFFSET 0 19.8018 0
                CHANNELS 3 Zrotation Xrotation Yrotation
                JOINT LeftForeArmRoll
                {
                  OFFSET 0 7.62905 0
                  CHANNELS 3 Zrotation Xrotation Yrotation
                  JOINT LeftHand
                  {
                    OFFSET 0 15.3098 0
                    CHANNELS 3 Zrotation Xrotation Yrotation
                    End Site
                    {
                      OFFSET 0 0 0
                    }
                  }
                }
              }
            }
          }
        }
      }
    }
  }
  JOINT RightUpLeg
  {
    OFFSET -6.62609 -1.21505 -1.01927
    CHANNELS 3 Zrotation Xrotation Yrotation
    JOINT RightUpLegRoll
    {
      OFFSET 0 17.9517 0
      CHANNELS 3 Zrotation Xrotation Yrotation
      JOINT RightLeg
      {
        OFFSET 0 -22.2304 0
        CHANNELS 3 Zrotation Xrotation Yrotation
        JOINT RightLegRoll
        {
          OFFSET 0 22.3032 0
          CHANNELS 3 Zrotation Xrotation Yrotation
          JOINT RightFoot
          {
            OFFSET 0 18.5636 0
            CHANNELS 3 Zrotation Xrotation Yrotation
            JOINT RightToeBase
            {
              OFFSET 0 15.5183 0
              CHANNELS 3 Zrotation Xrotation Yrotation
              End Site
              {
                OFFSET 0.00657761 7.51538 -0.866263
              }
            }
          }
        }
      }
    }
  }
  JOINT LeftUpLeg
  {
    OFFSET 6.62609 -1.21505 -1.01927
    CHANNELS 3 Zrotation Xrotation Yrotation
    JOINT LeftUpLegRoll
    {
      OFFSET 0 17.9518 0
      CHANNELS 3 Zrotation Xrotation Yrotation
      JOINT LeftLeg
      {
        OFFSET 0 22.2303 0
        CHANNELS 3 Zrotation Xrotation Yrotation
        JOINT LeftLegRoll
        {
          OFFSET 0 22.5093 0
          CHANNELS 3 Zrotation Xrotation Yrotation
          JOINT LeftFoot
          {
            OFFSET 0 18.3575 0
            CHANNELS 3 Zrotation Xrotation Yrotation
            JOINT LeftToeBase
            {
              OFFSET 0 15.5183 0
              CHANNELS 3 Zrotation Xrotation Yrotation
              End Site
              {
                OFFSET -0.029478 7.51539 -0.866263
              }
            }
          }
        }
      }
    }
  }
}
MOTION
Frames: 11
Frame Time: 0.00208333
56.2086 93.6141 11.7353 -1.02668 -4.68066 -1.72084 0.102213 -1.87059 0.179333 0.21508 0.261981 0.349702 0.210978 1.90704 0.346214 -5.90156 15.9516 -0.401197 7.38882 2.52513 -1.54666 71.8878 -1.47157 -2.23028 108.53 33.1442 -27.026 -3.37999e-005 -2.29057e-007 -7.70357e-006 -7.8635 84.3609 3.49501 8.39568e-006 -7.9518e-007 -3.01061 8.02957 -4.95143 0.697653 -70.7129 -2.81268 2.76452 -108.348 32.8687 6.56031 -1.05817e-005 2.37495e-006 -2.31326e-009 -10.0606 66.3515 9.58389 7.79096e-006 1.62124e-007 3.00497 -8.02913 -4.95145 -0.697663 -179.434 -1.80572 -1.47936 180 7.01553e-015 178.949 178.721 6.25154 179.687 3.03726e-006 -2.56543e-006 0.012582 -17.7236 66.8567 18.6225 8.13649 25.2326 -3.48773 -179.889 -0.567544 3.53069 4.57705e-006 1.05463e-005 -1.09462 -1.98729 -8.65007 0.0945787 1.73641e-006 -6.72669e-007 -0.149439 19.8703 69.4976 -20.874 -8.13649 25.2327 3.48774 
56.202 93.6128 11.741 -1.02747 -4.6841 -1.71991 0.103196 -1.86883 0.179063 0.21641 0.265502 0.349005 0.212317 1.91056 0.345495 -5.92295 15.9291 -0.396431 7.40769 2.54774 -1.54701 71.875 -1.46977 -2.22818 108.523 33.1469 -26.9972 -3.37999e-005 -2.29057e-007 -7.70357e-006 -7.99562 84.409 3.61472 8.39568e-006 -7.9518e-007 -3.01061 8.02957 -4.95143 0.697653 -70.7019 -2.81411 2.76427 -108.368 32.9042 6.57471 -1.05817e-005 2.37495e-006 -2.31327e-009 -10.0663 66.3366 9.58361 7.79096e-006 1.62124e-007 3.00497 -8.02913 -4.95145 -0.697663 -179.432 -1.80521 -1.48057 180 7.01553e-015 178.949 178.722 6.25523 179.687 3.03726e-006 -2.56543e-006 0.0125616 -17.7231 66.8559 18.6219 8.13649 25.2326 -3.48773 -179.887 -0.568634 3.52852 4.57705e-006 1.05463e-005 -1.09479 -1.98878 -8.65277 0.0941779 1.73641e-006 -6.72669e-007 -0.14947 19.87 69.4972 -20.8737 -8.13649 25.2327 3.48774 
56.2003 93.6174 11.7374 -1.02821 -4.68761 -1.71903 0.104187 -1.86701 0.178816 0.2177 0.269129 0.348329 0.213616 1.91418 0.344798 -5.94448 15.9054 -0.39165 7.4269 2.57153 -1.54738 71.8623 -1.4678 -2.22602 108.517 33.1503 -26.977 -3.37999e-005 -2.29057e-007 -7.70357e-006 -8.1263 84.4555 3.73348 8.39568e-006 -7.95179e-007 -3.01061 8.02957 -4.95143 0.697653 -70.6907 -2.81604 2.76425 -108.392 32.9405 6.59742 -1.05817e-005 2.37495e-006 -2.31324e-009 -10.0744 66.3231 9.58571 7.79096e-006 1.62124e-007 3.00496 -8.02913 -4.95145 -0.697663 -179.431 -1.80454 -1.48175 180 7.01553e-015 178.949 178.723 6.25912 179.687 3.03726e-006 -2.56543e-006 0.0125413 -17.7225 66.8551 18.6214 8.13649 25.2326 -3.48773 -179.886 -0.569817 3.52641 4.57705e-006 1.05463e-005 -1.09497 -1.99022 -8.65538 0.0937645 1.73641e-006 -6.72669e-007 -0.149503 19.8696 69.4969 -20.8733 -8.13649 25.2327 3.48774 
56.1993 93.6184 11.738 -1.02894 -4.69117 -1.71818 0.105154 -1.86516 0.178584 0.218909 0.272844 0.347666 0.214833 1.9179 0.344114 -5.96561 15.8807 -0.386964 7.44603 2.59623 -1.54775 71.8504 -1.46562 -2.22381 108.512 33.1545 -26.9647 -3.37999e-005 -2.29057e-007 -7.70357e-006 -8.25486 84.5 3.85066 8.39568e-006 -7.9518e-007 -3.0106 8.02957 -4.95143 0.697653 -70.6792 -2.81855 2.76448 -108.418 32.9775 6.62935 -1.05817e-005 2.37495e-006 -2.31326e-009 -10.0849 66.3111 9.59039 7.79096e-006 1.62124e-007 3.00495 -8.02913 -4.95145 -0.697663 -179.429 -1.80374 -1.48292 180 7.01553e-015 178.949 178.724 6.26311 179.686 3.03726e-006 -2.56543e-006 0.0125212 -17.722 66.8544 18.6208 8.13649 25.2326 -3.48773 -179.884 -0.571035 3.52438 4.57705e-006 1.05463e-005 -1.09514 -1.99158 -8.6579 0.0933473 1.73641e-006 -6.72669e-007 -0.149538 19.8693 69.4966 -20.873 -8.13649 25.2327 3.48774 
56.2006 93.6013 11.7378 -1.02969 -4.69473 -1.71732 0.106069 -1.86327 0.178357 0.219996 0.276624 0.347005 0.215929 1.92167 0.343435 -5.98579 15.8553 -0.382483 7.46463 2.62161 -1.5481 71.8396 -1.4632 -2.22161 108.506 33.1595 -26.9595 -3.37999e-005 -2.29057e-007 -7.70357e-006 -8.38059 84.5421 3.96553 8.39568e-006 -7.9518e-007 -3.0106 8.02957 -4.95143 0.697653 -70.6675 -2.82168 2.765 -108.447 33.0151 6.67139 -1.05817e-005 2.37495e-006 -2.31325e-009 -10.098 66.3006 9.59788 7.79096e-006 1.62124e-007 3.00495 -8.02913 -4.95145 -0.697663 -179.427 -1.80283 -1.48409 180 7.01553e-015 178.949 178.726 6.26718 179.686 3.03726e-006 -2.56543e-006 0.0125012 -17.7215 66.8537 18.6203 8.13649 25.2326 -3.48773 -179.882 -0.572232 3.52245 4.57705e-006 1.05463e-005 -1.09532 -1.99283 -8.66035 0.0929351 1.73641e-006 -6.72669e-007 -0.149575 19.8691 69.4964 -20.8729 -8.13649 25.2327 3.48774 
56.2032 93.6046 11.7286 -1.03051 -4.69826 -1.71642 0.106901 -1.86136 0.178126 0.22092 0.28045 0.346337 0.216862 1.9255 0.342751 -6.00448 15.8293 -0.378316 7.48226 2.64741 -1.54841 71.8305 -1.46049 -2.21945 108.502 33.1651 -26.9607 -3.37999e-005 -2.29057e-007 -7.70357e-006 -8.50272 84.5815 4.07736 8.39568e-006 -7.9518e-007 -3.0106 8.02957 -4.95143 0.697653 -70.6554 -2.82551 2.76582 -108.479 33.0532 6.72442 -1.05817e-005 2.37495e-006 -2.31326e-009 -10.1136 66.2918 9.60839 7.79096e-006 1.62124e-007 3.00494 -8.02913 -4.95145 -0.697663 -179.426 -1.80184 -1.48525 180 7.01553e-015 178.949 178.727 6.27122 179.686 3.03726e-006 -2.56543e-006 0.0124814 -17.721 66.853 18.6198 8.13649 25.2326 -3.48773 -179.881 -0.573349 3.52063 4.57705e-006 1.05463e-005 -1.09549 -1.99393 -8.66273 0.0925364 1.73641e-006 -6.72669e-007 -0.149614 19.869 69.4964 -20.8729 -8.13649 25.2327 3.48774 
56.2004 93.6176 11.7294 -1.03143 -4.70172 -1.71545 0.107621 -1.85943 0.177881 0.221641 0.284302 0.345652 0.217591 1.92935 0.342054 -6.02112 15.8029 -0.374574 7.49848 2.67339 -1.54866 71.8238 -1.45747 -2.21736 108.496 33.1712 -26.9676 -3.37999e-005 -2.29057e-007 -7.70357e-006 -8.62044 84.6178 4.18533 8.39568e-006 -7.95179e-007 -3.0106 8.02957 -4.95143 0.697653 -70.6429 -2.83008 2.76699 -108.514 33.0917 6.78936 -1.05817e-005 2.37495e-006 -2.31325e-009 -10.1319 66.2847 9.62214 7.79096e-006 1.62124e-007 3.00494 -8.02913 -4.95145 -0.697663 -179.424 -1.80079 -1.48643 180 7.01553e-015 178.949 178.728 6.27519 179.686 3.03726e-006 -2.56543e-006 0.0124617 -17.7205 66.8523 18.6193 8.13649 25.2326 -3.48773 -179.879 -0.57433 3.51895 4.57705e-006 1.05463e-005 -1.09566 -1.99484 -8.66503 0.0921601 1.73641e-006 -6.72669e-007 -0.149656 19.8692 69.4967 -20.8731 -8.13649 25.2327 3.48774 
56.1962 93.6143 11.7297 -1.0325 -4.70507 -1.71438 0.1082 -1.8575 0.177615 0.222117 0.288159 0.344941 0.218076 1.93321 0.341335 -6.03518 15.7763 -0.371366 7.51285 2.69928 -1.54882 71.8198 -1.45409 -2.21537 108.491 33.178 -26.9794 -3.37999e-005 -2.29057e-007 -7.70357e-006 -8.7329 84.6507 4.28863 8.39568e-006 -7.9518e-007 -3.0106 8.02957 -4.95143 0.697653 -70.6301 -2.83546 2.76851 -108.553 33.1306 6.86709 -1.05817e-005 2.37495e-006 -2.31325e-009 -10.153 66.2794 9.63935 7.79096e-006 1.62124e-007 3.00493 -8.02913 -4.95145 -0.697663 -179.422 -1.7997 -1.48764 180 7.01553e-015 178.949 178.729 6.27899 179.686 3.03726e-006 -2.56543e-006 0.0124421 -17.7201 66.8517 18.6189 8.13649 25.2326 -3.48773 -179.877 -0.575117 3.51742 4.57705e-006 1.05463e-005 -1.09584 -1.99553 -8.66727 0.0918148 1.73641e-006 -6.72669e-007 -0.149701 19.8697 69.4973 -20.8738 -8.13649 25.2327 3.48774 
56.1979 93.621 11.7276 -1.03376 -4.70828 -1.71319 0.108607 -1.85558 0.177316 0.222308 0.292 0.344195 0.218276 1.93705 0.340586 -6.04611 15.7496 -0.368802 7.52493 2.72485 -1.54888 71.8193 -1.45031 -2.21353 108.485 33.1852 -26.9955 -3.37999e-005 -2.29057e-007 -7.70357e-006 -8.83924 84.6798 4.3864 8.39568e-006 -7.9518e-007 -3.0106 8.02957 -4.95143 0.697653 -70.6169 -2.8417 2.77044 -108.595 33.1696 6.95852 -1.05817e-005 2.37495e-006 -2.31325e-009 -10.1768 66.2759 9.66024 7.79096e-006 1.62124e-007 3.00493 -8.02913 -4.95145 -0.697663 -179.42 -1.79861 -1.48889 180 7.01553e-015 178.949 178.73 6.28259 179.686 3.03726e-006 -2.56543e-006 0.0124226 -17.7197 66.8511 18.6184 8.13649 25.2326 -3.48773 -179.876 -0.575652 3.51607 4.57705e-006 1.05463e-005 -1.09601 -1.99596 -8.66945 0.0915093 1.73641e-006 -6.72669e-007 -0.149749 19.8707 69.4983 -20.8748 -8.13649 25.2327 3.48774 
56.1991 93.6192 11.7169 -1.03524 -4.71131 -1.71183 0.108813 -1.85368 0.176977 0.222172 0.295806 0.343404 0.21815 1.94085 0.339797 -6.05336 15.7231 -0.366991 7.53429 2.74984 -1.54881 71.8226 -1.44611 -2.21186 108.478 33.1928 -27.015 -3.37999e-005 -2.29057e-007 -7.70357e-006 -8.93855 84.7048 4.47774 8.39568e-006 -7.9518e-007 -3.0106 8.02957 -4.95143 0.697653 -70.6031 -2.84888 2.77278 -108.641 33.2086 7.06454 -1.05817e-005 2.37495e-006 -2.31326e-009 -10.2035 66.2743 9.68504 7.79096e-006 1.62124e-007 3.00492 -8.02913 -4.95145 -0.697663 -179.418 -1.79753 -1.49018 180 7.01553e-015 178.949 178.73 6.28589 179.686 3.03726e-006 -2.56543e-006 0.0124033 -17.7193 66.8506 18.6181 8.13649 25.2326 -3.48773 -179.874 -0.575879 3.51491 4.57705e-006 1.05463e-005 -1.09617 -1.9961 -8.67158 0.0912522 1.73641e-006 -6.72669e-007 -0.149801 19.872 69.4997 -20.8763 -8.13649 25.2327 3.48774 
56.1973 93.6044 11.7171 -1.03698 -4.71413 -1.71028 0.108788 -1.8518 0.176589 0.221669 0.299557 0.342559 0.217657 1.9446 0.33896 -6.05639 15.6969 -0.366042 7.54048 2.774 -1.54859 71.8303 -1.44143 -2.2104 108.47 33.2008 -27.0373 -3.37999e-005 -2.29057e-007 -7.70357e-006 -9.0299 84.7252 4.56175 8.39568e-006 -7.9518e-007 -3.0106 8.02957 -4.95143 0.697653 -70.5889 -2.85703 2.77557 -108.69 33.2476 7.18607 -1.05817e-005 2.37495e-006 -2.31325e-009 -10.2331 66.2746 9.71396 7.79096e-006 1.62124e-007 3.00492 -8.02913 -4.95145 -0.697663 -179.415 -1.79649 -1.49152 180 7.01553e-015 178.949 178.731 6.28882 179.686 3.03726e-006 -2.56543e-006 0.012384 -17.7189 66.8501 18.6177 8.13649 25.2326 -3.48773 -179.872 -0.575741 3.51396 4.57705e-006 1.05463e-005 -1.09634 -1.99591 -8.67365 0.0910523 1.73641e-006 -6.72669e-007 -0.149856 19.8739 69.5017 -20.8783 -8.13649 25.2327 3.48774 
